# xmcd
# 
# Track frame offsets:
#     150
#     15117
#     44091
#     85223
#     118673
#     133948
#     157706
#     181428
#     198811
# 
# Disc length: 3028
# 
# Revision: 1
# Processed by: cddbd v1.5.2PL0 Copyright (c) Steve Scherf et al.
# Submitted via: fre:ac v1.0.17
# 
DISCID=6b0bd209
DTITLE=HIRILORN/NASAV - Split
DYEAR=1997
DGENRE=Blues
TTITLE0=Return of the druids
TTITLE1=Haxan (Omen of the witches)
TTITLE2=Haunted Castle of Rising Solitude
TTITLE3=Where lighting Strikes Eternally
TTITLE4=Astral Entities
TTITLE5=The Advent of an Era Evertold
TTITLE6=Les Letanies des Druidas
TTITLE7=Cults des Ritos des Ghoules
TTITLE8=Throught the gates of the Silver Key
EXTD=YEAR: 1997 ID3G: 0
EXTT0=
EXTT1=
EXTT2=
EXTT3=
EXTT4=
EXTT5=
EXTT6=
EXTT7=
EXTT8=
PLAYORDER=
